<?xml version="1.0" encoding="utf-8"?>
<!-- Generator: Adobe Illustrator 23.0.6, SVG Export Plug-In . SVG Version: 6.00 Build 0)  -->
<svg version="1.1" id="Layer_1" xmlns="http://www.w3.org/2000/svg" xmlns:xlink="http://www.w3.org/1999/xlink" x="0px" y="0px"
	 viewBox="0 0 392 507" style="enable-background:new 0 0 392 507;" xml:space="preserve">
<style type="text/css">
	.st0{fill:#234414;}
	.st1{fill:#34681B;}
	.st2{fill:#4CAF23;}
	.st3{fill:#FFFFFF;}
	.st4{fill:#143742;}
	.st5{fill:#22627C;}
	.st6{fill:#268ABC;}
	.st7{fill:#733B9E;}
	.st8{fill:#502477;}
	.st9{fill:#2F1844;}
	.st10{fill:#212121;}
	.st11{fill:#383838;}
	.st12{fill:#686868;}
	.st13{fill:#282828;}
	.st14{fill:#191919;}
	.st15{fill:#C62645;}
	.st16{fill:#871B3A;}
	.st17{fill:#5B2433;}
	.st18{fill:#565656;}
	.st19{fill:#1C1C1C;}
	.st20{fill:#EDEDED;}
</style>
<g>
	<polygon class="st10" points="368.34,183.9 357.05,195.08 357,140 368.34,127.45 	"/>
	<rect x="233.73" y="127.45" class="st11" width="134.6" height="56.45"/>
	<polygon class="st10" points="297.13,120.51 233.73,183.9 233.73,127.45 297.13,64.06 	"/>
	<polygon class="st11" points="34,120.51 45.18,131.68 45,77 34,64.06 	"/>
	<rect x="34" y="64.06" class="st12" width="263.13" height="56.45"/>
	<g>
		<path class="st3" d="M74.95,104.46c-0.72-0.69-1.08-1.6-1.08-2.74V77.1h5.6v23.53h15.42v4.87H77.81
			C76.62,105.5,75.66,105.15,74.95,104.46z"/>
		<path class="st3" d="M98.82,104.44c-0.73-0.7-1.1-1.62-1.1-2.76V77.1h21.66v4.87h-16.06v6.57h14.85v4.87h-14.85v7.22h16.06v4.87
			h-17.73C100.5,105.5,99.55,105.15,98.82,104.44z"/>
		<path class="st3" d="M130.62,102.9l-9.78-25.8h5.84l7.46,21.3h0.08l7.5-21.3h5.8l-10.91,28.4h-2.64
			C132.42,105.5,131.3,104.63,130.62,102.9z"/>
		<path class="st3" d="M151.31,104.44c-0.73-0.7-1.1-1.62-1.1-2.76V77.1h21.66v4.87h-16.06v6.57h14.85v4.87h-14.85v7.22h16.06v4.87
			h-17.73C152.99,105.5,152.04,105.15,151.31,104.44z"/>
		<path class="st3" d="M176.77,104.46c-0.72-0.69-1.08-1.6-1.08-2.74V77.1h5.6v23.53h15.42v4.87h-17.08
			C178.44,105.5,177.48,105.15,176.77,104.46z"/>
		<path class="st3" d="M215.97,83.19l-6.53,3.29v-5.19l7.87-4.18h4.26v28.4h-5.6V83.19z"/>
	</g>
</g>
</svg>
