<?xml version="1.0" encoding="utf-8"?>
<!-- Generator: Adobe Illustrator 23.0.6, SVG Export Plug-In . SVG Version: 6.00 Build 0)  -->
<svg version="1.1" id="Layer_1" xmlns="http://www.w3.org/2000/svg" xmlns:xlink="http://www.w3.org/1999/xlink" x="0px" y="0px"
	 viewBox="0 0 375 507" style="enable-background:new 0 0 375 507;" xml:space="preserve">
<style type="text/css">
	.st0{fill:#234414;}
	.st1{fill:#34681B;}
	.st2{fill:#4CAF23;}
	.st3{fill:#FFFFFF;}
	.st4{fill:#143742;}
	.st5{fill:#22627C;}
	.st6{fill:#268ABC;}
	.st7{fill:#733B9E;}
	.st8{fill:#502477;}
	.st9{fill:#2F1844;}
	.st10{fill:#212121;}
	.st11{fill:#383838;}
	.st12{fill:#686868;}
	.st13{fill:#282828;}
	.st14{fill:#191919;}
	.st15{fill:#C62645;}
	.st16{fill:#871B3A;}
	.st17{fill:#5B2433;}
	.st18{fill:#565656;}
	.st19{fill:#1C1C1C;}
	.st20{fill:#EDEDED;}
</style>
<g>
	<rect x="12.66" y="64.06" class="st7" width="263.13" height="56.45"/>
	<g>
		<path class="st3" d="M53.61,104.46c-0.72-0.69-1.08-1.6-1.08-2.74V77.1h5.6v23.53h15.42v4.87H56.47
			C55.28,105.5,54.33,105.15,53.61,104.46z"/>
		<path class="st3" d="M77.48,104.44c-0.73-0.7-1.1-1.62-1.1-2.76V77.1h21.66v4.87H81.99v6.57h14.85v4.87H81.99v7.22h16.06v4.87
			H80.32C79.16,105.5,78.21,105.15,77.48,104.44z"/>
		<path class="st3" d="M109.29,102.9l-9.78-25.8h5.84l7.46,21.3h0.08l7.5-21.3h5.8l-10.91,28.4h-2.64
			C111.09,105.5,109.96,104.63,109.29,102.9z"/>
		<path class="st3" d="M129.98,104.44c-0.73-0.7-1.1-1.62-1.1-2.76V77.1h21.66v4.87h-16.06v6.57h14.85v4.87h-14.85v7.22h16.06v4.87
			h-17.73C131.65,105.5,130.71,105.15,129.98,104.44z"/>
		<path class="st3" d="M155.43,104.46c-0.72-0.69-1.08-1.6-1.08-2.74V77.1h5.6v23.53h15.42v4.87h-17.08
			C157.1,105.5,156.15,105.15,155.43,104.46z"/>
		<path class="st3" d="M202.83,100.06h-11.56c-1.14,0-2.02-0.24-2.64-0.73c-0.62-0.49-0.93-1.19-0.93-2.11v-1.14l15.09-18.99h5.64
			v18.01H212v4.95h-3.57v5.44h-5.6V100.06z M203,95.36V84.12h-0.04l-8.88,11.24H203z"/>
	</g>
	<polygon class="st8" points="12.66,120.51 23.84,131.68 23.84,120.51 	"/>
	<polygon class="st9" points="346.89,183.9 335.71,195.08 335.71,183.9 	"/>
	<rect x="212.4" y="127.45" class="st8" width="134.6" height="56.45"/>
	<polygon class="st9" points="275.79,120.51 212.4,183.9 212.4,127.45 219.09,120.76 	"/>
</g>
</svg>
