<?xml version="1.0" encoding="utf-8"?>
<!-- Generator: Adobe Illustrator 23.0.6, SVG Export Plug-In . SVG Version: 6.00 Build 0)  -->
<svg version="1.1" id="Layer_1" xmlns="http://www.w3.org/2000/svg" xmlns:xlink="http://www.w3.org/1999/xlink" x="0px" y="0px"
	 viewBox="0 0 407 507" style="enable-background:new 0 0 407 507;" xml:space="preserve">
<style type="text/css">
	.st0{fill:#234414;}
	.st1{fill:#34681B;}
	.st2{fill:#4CAF23;}
	.st3{fill:#FFFFFF;}
	.st4{fill:#143742;}
	.st5{fill:#22627C;}
	.st6{fill:#268ABC;}
	.st7{fill:#733B9E;}
	.st8{fill:#502477;}
	.st9{fill:#2F1844;}
	.st10{fill:#212121;}
	.st11{fill:#383838;}
	.st12{fill:#686868;}
	.st13{fill:#282828;}
	.st14{fill:#191919;}
	.st15{fill:#C62645;}
	.st16{fill:#871B3A;}
	.st17{fill:#5B2433;}
	.st18{fill:#565656;}
	.st19{fill:#1C1C1C;}
	.st20{fill:#EDEDED;}
</style>
<g>
	<polygon class="st0" points="375.78,183.9 364.49,195.08 364.49,138.85 375.78,127.45 	"/>
	<rect x="241.17" y="127.45" class="st1" width="134.6" height="56.45"/>
	<polygon class="st0" points="304.57,120.51 241.17,183.9 241.17,127.45 304.57,64.06 	"/>
	<polygon class="st1" points="41.44,120.51 52.62,131.68 52.62,75 41.44,64.06 	"/>
	<rect x="41.44" y="64.06" class="st2" width="263.13" height="56.45"/>
	<g>
		<path class="st3" d="M82.39,104.46c-0.72-0.69-1.08-1.6-1.08-2.74V77.1h5.6v23.53h15.42v4.87H85.25
			C84.06,105.5,83.1,105.15,82.39,104.46z"/>
		<path class="st3" d="M106.26,104.44c-0.73-0.7-1.1-1.62-1.1-2.76V77.1h21.66v4.87h-16.06v6.57h14.85v4.87h-14.85v7.22h16.06v4.87
			H109.1C107.94,105.5,106.99,105.15,106.26,104.44z"/>
		<path class="st3" d="M138.06,102.9l-9.78-25.8h5.84l7.46,21.3h0.08l7.5-21.3h5.8l-10.91,28.4h-2.64
			C139.86,105.5,138.74,104.63,138.06,102.9z"/>
		<path class="st3" d="M158.75,104.44c-0.73-0.7-1.1-1.62-1.1-2.76V77.1h21.66v4.87h-16.06v6.57h14.85v4.87h-14.85v7.22h16.06v4.87
			h-17.73C160.43,105.5,159.48,105.15,158.75,104.44z"/>
		<path class="st3" d="M184.21,104.46c-0.72-0.69-1.08-1.6-1.08-2.74V77.1h5.6v23.53h15.42v4.87h-17.08
			C185.88,105.5,184.92,105.15,184.21,104.46z"/>
		<path class="st3" d="M217.49,101.44c0-1.62,0.3-3.03,0.89-4.22c0.59-1.19,1.61-2.22,3.04-3.08l10.06-6
			c0.49-0.27,0.87-0.65,1.16-1.14c0.28-0.49,0.43-0.97,0.43-1.46v-1.3c0-0.76-0.28-1.37-0.83-1.83c-0.55-0.46-1.28-0.69-2.17-0.69
			h-3.73c-1.05,0-1.88,0.38-2.47,1.16c-0.6,0.77-0.89,1.86-0.89,3.27h-5.6c0-2.95,0.78-5.25,2.35-6.9c1.57-1.65,3.75-2.47,6.53-2.47
			h3.81c1.7,0,3.21,0.31,4.5,0.93c1.3,0.62,2.31,1.5,3.02,2.64c0.72,1.14,1.07,2.43,1.07,3.89v1.3c0,1.46-0.3,2.71-0.91,3.75
			s-1.56,1.94-2.86,2.7l-9.78,5.68c-0.65,0.38-1.14,0.8-1.48,1.26c-0.34,0.46-0.51,1.03-0.51,1.7h15.7v4.87h-21.34V101.44z"/>
	</g>
</g>
</svg>
