<?xml version="1.0" encoding="utf-8"?>
<!-- Generator: Adobe Illustrator 23.0.6, SVG Export Plug-In . SVG Version: 6.00 Build 0)  -->
<svg version="1.1" id="Layer_1" xmlns="http://www.w3.org/2000/svg" xmlns:xlink="http://www.w3.org/1999/xlink" x="0px" y="0px"
	 viewBox="0 0 348 507" style="enable-background:new 0 0 348 507;" xml:space="preserve">
<style type="text/css">
	.st0{fill:#234414;}
	.st1{fill:#34681B;}
	.st2{fill:#4CAF23;}
	.st3{fill:#FFFFFF;}
	.st4{fill:#143742;}
	.st5{fill:#22627C;}
	.st6{fill:#268ABC;}
	.st7{fill:#733B9E;}
	.st8{fill:#502477;}
	.st9{fill:#2F1844;}
	.st10{fill:#212121;}
	.st11{fill:#383838;}
	.st12{fill:#686868;}
	.st13{fill:#282828;}
	.st14{fill:#191919;}
	.st15{fill:#C62645;}
	.st16{fill:#871B3A;}
	.st17{fill:#5B2433;}
	.st18{fill:#565656;}
	.st19{fill:#1C1C1C;}
	.st20{fill:#EDEDED;}
</style>
<g>
	<polygon class="st4" points="338.3,183.9 327.01,195.08 327.01,138.53 338.3,127.45 	"/>
	<rect x="203.69" y="127.45" class="st5" width="134.6" height="56.45"/>
	<polygon class="st4" points="267.09,120.51 203.69,183.9 203.69,127.45 267.09,64.06 	"/>
	<polygon class="st5" points="3.96,120.51 15.14,131.68 15.14,74.45 3.96,64.06 	"/>
	<rect x="3.96" y="64.06" class="st6" width="263.13" height="56.45"/>
	<g>
		<path class="st3" d="M44.91,104.46c-0.72-0.69-1.08-1.6-1.08-2.74V77.1h5.6v23.53h15.42v4.87H47.77
			C46.58,105.5,45.62,105.15,44.91,104.46z"/>
		<path class="st3" d="M68.78,104.44c-0.73-0.7-1.1-1.62-1.1-2.76V77.1h21.66v4.87H73.28v6.57h14.85v4.87H73.28v7.22h16.06v4.87
			H71.62C70.46,105.5,69.51,105.15,68.78,104.44z"/>
		<path class="st3" d="M100.58,102.9l-9.78-25.8h5.84l7.46,21.3h0.08l7.5-21.3h5.8l-10.91,28.4h-2.64
			C102.38,105.5,101.26,104.63,100.58,102.9z"/>
		<path class="st3" d="M121.27,104.44c-0.73-0.7-1.1-1.62-1.1-2.76V77.1h21.66v4.87h-16.06v6.57h14.85v4.87h-14.85v7.22h16.06v4.87
			h-17.73C122.95,105.5,122,105.15,121.27,104.44z"/>
		<path class="st3" d="M146.73,104.46c-0.72-0.69-1.08-1.6-1.08-2.74V77.1h5.6v23.53h15.42v4.87h-17.08
			C148.4,105.5,147.44,105.15,146.73,104.46z"/>
		<path class="st3" d="M201.49,93.25c0.61,0.95,0.91,1.93,0.91,2.96v1.62c0,1.57-0.39,2.96-1.18,4.18
			c-0.78,1.22-1.89,2.16-3.31,2.82s-3.06,0.99-4.93,0.99h-3.94c-2.89,0-5.16-0.82-6.79-2.47c-1.64-1.65-2.45-3.95-2.45-6.9h5.52
			c0,1.41,0.32,2.49,0.97,3.27c0.65,0.77,1.57,1.16,2.76,1.16h3.94c1.14,0,2.05-0.28,2.76-0.83c0.7-0.55,1.05-1.29,1.05-2.21v-1.62
			c0-0.84-0.37-1.51-1.09-2.03c-0.73-0.51-1.68-0.77-2.84-0.77h-5.19v-4.87h5.19c1.03,0,1.85-0.25,2.47-0.75
			c0.62-0.5,0.93-1.16,0.93-1.97V84.2c0-0.76-0.3-1.36-0.89-1.81s-1.37-0.67-2.31-0.67h-3.94c-1.11,0-1.97,0.38-2.58,1.16
			c-0.61,0.77-0.91,1.86-0.91,3.27h-5.64c0-2.95,0.8-5.25,2.41-6.9s3.85-2.47,6.71-2.47h3.94c1.73,0,3.27,0.31,4.6,0.93
			c1.34,0.62,2.37,1.5,3.1,2.62s1.1,2.41,1.1,3.87v1.62c0,1-0.26,1.93-0.77,2.8c-0.51,0.87-1.25,1.61-2.19,2.23
			C200.02,91.5,200.88,92.3,201.49,93.25z"/>
	</g>
</g>
</svg>
