<?xml version="1.0" encoding="utf-8"?>
<!-- Generator: Adobe Illustrator 23.0.6, SVG Export Plug-In . SVG Version: 6.00 Build 0)  -->
<svg version="1.1" id="Layer_1" xmlns="http://www.w3.org/2000/svg" xmlns:xlink="http://www.w3.org/1999/xlink" x="0px" y="0px"
	 viewBox="0 0 362 507" style="enable-background:new 0 0 362 507;" xml:space="preserve">
<style type="text/css">
	.st0{fill:#234414;}
	.st1{fill:#34681B;}
	.st2{fill:#4CAF23;}
	.st3{fill:#FFFFFF;}
	.st4{fill:#143742;}
	.st5{fill:#22627C;}
	.st6{fill:#268ABC;}
	.st7{fill:#733B9E;}
	.st8{fill:#502477;}
	.st9{fill:#2F1844;}
	.st10{fill:#212121;}
	.st11{fill:#383838;}
	.st12{fill:#686868;}
	.st13{fill:#282828;}
	.st14{fill:#191919;}
	.st15{fill:#C62645;}
	.st16{fill:#871B3A;}
	.st17{fill:#5B2433;}
	.st18{fill:#565656;}
	.st19{fill:#1C1C1C;}
	.st20{fill:#EDEDED;}
</style>
<g>
	<rect x="18.66" y="64.06" class="st15" width="263.13" height="56.45"/>
	<polygon class="st16" points="18.66,120.51 29.84,131.68 29.84,120.51 	"/>
	<polygon class="st17" points="352.89,183.9 341.71,195.08 341.71,183.9 	"/>
	<rect x="218.4" y="127.45" class="st16" width="134.6" height="56.45"/>
	<polygon class="st17" points="281.79,120.51 218.4,183.9 218.4,127.45 225.09,120.76 	"/>
</g>
<g>
	<path class="st3" d="M60.01,76.5h5.33l14.57,20.64V76.5h5.85v30.35h-5.33L65.86,86.21v20.64h-5.85V76.5z"/>
	<path class="st3" d="M96.08,105.83c-1.62-0.91-2.88-2.19-3.77-3.84s-1.34-3.56-1.34-5.72V76.5h5.98v19.6
		c0,1.73,0.44,3.14,1.32,4.21c0.88,1.07,2.03,1.6,3.45,1.6h4.6c1.44,0,2.62-0.53,3.51-1.6c0.9-1.07,1.34-2.47,1.34-4.21V76.5h5.98
		v19.77c0,2.17-0.45,4.08-1.34,5.72c-0.9,1.65-2.17,2.93-3.82,3.84c-1.65,0.91-3.54,1.37-5.68,1.37h-4.6
		C99.58,107.2,97.7,106.74,96.08,105.83z"/>
	<path class="st3" d="M123.5,105.75c-0.77-0.74-1.15-1.71-1.15-2.93V76.5h5.98v25.15h16.48v5.2h-18.25
		C125.29,106.85,124.27,106.48,123.5,105.75z"/>
	<path class="st3" d="M149,105.75c-0.77-0.74-1.15-1.71-1.15-2.93V76.5h5.98v25.15h16.48v5.2h-18.25
		C150.78,106.85,149.76,106.48,149,105.75z"/>
</g>
</svg>
